<svg width="100" height="100" viewBox="0 0 100 100" fill="none" xmlns="http://www.w3.org/2000/svg">
<path fill-rule="evenodd" clip-rule="evenodd" d="M76.7724 44.6637C80.8644 44.6637 84.1934 48.1274 84.1934 52.3879C84.1934 56.6454 80.8644 60.1091 76.7724 60.1091H44.5069C39.372 60.1091 35.1934 55.7597 35.1934 50.4138C35.1934 45.0678 39.372 40.7184 44.5069 40.7184C45.4631 40.7184 46.4136 40.8716 47.3286 41.1736L47.9268 41.3706L48.1371 40.7563C50.1092 34.9858 55.379 31.1091 61.2499 31.1091C68.4279 31.1091 74.3854 36.706 75.1086 44.1297L75.1754 44.8169L75.8346 44.7322C76.1984 44.6856 76.4967 44.6637 76.7724 44.6637" fill="#BAC6D1"/>
<path fill-rule="evenodd" clip-rule="evenodd" d="M23.523 52.5984C18.9309 52.5984 15.1934 56.3014 15.1934 60.8545C15.1934 65.4047 18.9309 69.1091 23.523 69.1091H59.7388C65.5045 69.1091 70.1934 64.4598 70.1934 58.7451C70.1934 53.0304 65.5045 48.3811 59.7388 48.3811C58.6662 48.3811 57.5993 48.5454 56.5715 48.867L55.9016 49.0781L55.6649 48.4207C53.4518 42.2528 47.5359 38.1091 40.9459 38.1091C32.8891 38.1091 26.2023 44.093 25.391 52.0275L25.3159 52.7627L24.5768 52.672C24.1668 52.621 23.8319 52.5984 23.523 52.5984" fill="#D6E3F2"/>
</svg>
