<svg width="101" height="100" viewBox="0 0 101 100" fill="none" xmlns="http://www.w3.org/2000/svg">
<path fill-rule="evenodd" clip-rule="evenodd" d="M39.5104 36C46.9667 36.0057 53.0057 42.0542 53 49.5104C52.9943 56.9667 46.9458 63.0057 39.4896 63C32.0333 62.9943 25.9943 56.9458 26 49.4896C26.0057 42.0333 32.0542 35.9943 39.5104 36" fill="#F9C900"/>
<path fill-rule="evenodd" clip-rule="evenodd" d="M36 67.8747C36 68.0363 35.9792 68.1978 35.9358 68.3612L33.705 76.6129C33.4349 77.6122 32.4017 78.2039 31.3968 77.9353C30.39 77.6667 29.795 76.6392 30.0651 75.6399L32.2959 67.3882C32.566 66.3889 33.5992 65.7972 34.6041 66.064C35.4466 66.2894 36 67.0482 36 67.8747" fill="#F9C900"/>
<path fill-rule="evenodd" clip-rule="evenodd" d="M27 63.9654C27 64.4952 26.7775 65.023 26.3368 65.409L19.4469 71.4809C18.6127 72.2155 17.313 72.1643 16.5447 71.3666C15.7744 70.569 15.8279 69.3263 16.6621 68.5897L23.552 62.5198C24.3882 61.7852 25.6879 61.8345 26.4562 62.6341C26.8208 63.0102 27 63.4888 27 63.9654" fill="#F9C900"/>
<path fill-rule="evenodd" clip-rule="evenodd" d="M22 54.9127C22 55.7627 21.4393 56.5361 20.5974 56.7582L12.3395 58.9387C11.3401 59.2029 10.3182 58.5884 10.0594 57.568C9.8025 56.5476 10.4025 55.5042 11.4038 55.24L19.6618 53.0614C20.6612 52.7972 21.6812 53.4098 21.94 54.4321C21.9812 54.593 22 54.7538 22 54.9127" fill="#F9C900"/>
<path fill-rule="evenodd" clip-rule="evenodd" d="M22 44.0872C22 44.2444 21.9797 44.4035 21.935 44.5646C21.6568 45.5866 20.5519 46.2021 19.4693 45.9394L10.5205 43.765C9.43792 43.5024 8.78595 42.4574 9.06421 41.4354C9.34246 40.4134 10.4474 39.7979 11.5319 40.0606L20.4787 42.235C21.3927 42.4574 22 43.2339 22 44.0872" fill="#F9C900"/>
<path fill-rule="evenodd" clip-rule="evenodd" d="M27 35.0681C27 35.5527 26.8056 36.0372 26.4127 36.4113C25.6121 37.1788 24.2912 37.1982 23.4635 36.4558L16.6349 30.3215C15.8072 29.5792 15.7863 28.3562 16.5868 27.5887C17.3874 26.8212 18.7083 26.8018 19.536 27.5442L26.3646 33.6765C26.7889 34.0564 27 34.5623 27 35.0681" fill="#F9C900"/>
<path fill-rule="evenodd" clip-rule="evenodd" d="M35 29.9778C35 30.8828 34.514 31.7066 33.7867 31.9379C32.9274 32.2118 32.0536 31.5544 31.838 30.4688L30.0486 21.5186C29.833 20.433 30.3544 19.3353 31.2137 19.0613C32.073 18.7894 32.9467 19.4469 33.1624 20.5304L34.9517 29.4807C34.9839 29.647 35 29.8134 35 29.9778" fill="#F9C900"/>
<path fill-rule="evenodd" clip-rule="evenodd" d="M48 21.8726C48 22.0303 47.9791 22.1898 47.9372 22.3493L45.7366 30.6039C45.4701 31.604 44.4308 32.2007 43.4162 31.938C42.4035 31.6753 41.7962 30.6508 42.0627 29.6525L44.2633 21.396C44.5298 20.3977 45.5691 19.7991 46.5837 20.0618C47.4365 20.2833 48 21.0414 48 21.8726" fill="#F9C900"/>
<path fill-rule="evenodd" clip-rule="evenodd" d="M62 29.0041C62 29.5623 61.7863 30.1184 61.368 30.514L55.0443 36.5092C54.2796 37.234 53.1169 37.1457 52.4518 36.3125C51.7847 35.4772 51.8658 34.2123 52.6323 33.4855L58.9561 27.4923C59.7207 26.7654 60.8816 26.8538 61.5486 27.689C61.8526 28.0685 62 28.5383 62 29.0041" fill="#F9C900"/>
<path fill-rule="evenodd" clip-rule="evenodd" d="M69 41.8737C69 42.6952 68.4528 43.4473 67.6199 43.6762L59.3728 45.9326C58.3725 46.2064 57.3402 45.6212 57.0676 44.6234C56.793 43.6255 57.3797 42.5977 58.38 42.3238L66.6271 40.0674C67.6274 39.7936 68.6578 40.3788 68.9323 41.3766C68.9774 41.5417 69 41.7086 69 41.8737" fill="#F9C900"/>
<path fill-rule="evenodd" clip-rule="evenodd" d="M69 57.0872C69 57.2444 68.9813 57.4035 68.94 57.5646C68.6832 58.5866 67.6633 59.2021 66.6641 58.9394L58.4041 56.765C57.4048 56.5024 56.8012 55.4593 57.0599 54.4354C57.3167 53.4134 58.3366 52.7979 59.3377 53.0606L67.5958 55.235C68.4395 55.4574 69 56.2339 69 57.0872" fill="#F9C900"/>
<path fill-rule="evenodd" clip-rule="evenodd" d="M62 70.1002C62 70.5937 61.8068 71.0853 61.4203 71.4568C60.659 72.1923 59.4378 72.179 58.6938 71.4283L52.5491 65.2298C51.8052 64.4791 51.8187 63.2768 52.5801 62.5432C53.3414 61.8077 54.5626 61.821 55.3065 62.5717L61.4512 68.7702C61.8184 69.1398 62 69.62 62 70.1002" fill="#F9C900"/>
<path fill-rule="evenodd" clip-rule="evenodd" d="M49 77.1281C49 77.9547 48.3549 78.7098 47.3752 78.9353C46.2039 79.2039 44.9974 78.6121 44.6826 77.6128L42.0759 69.3622C41.761 68.3628 42.4546 67.3353 43.6258 67.0647C44.7971 66.7961 46.0036 67.3879 46.3184 68.3872L48.9229 76.6378C48.9758 76.8012 49 76.9665 49 77.1281" fill="#F9C900"/>
<mask id="mask0_0_759" style="mask-type:luminance" maskUnits="userSpaceOnUse" x="22" y="38" width="74" height="43">
<path fill-rule="evenodd" clip-rule="evenodd" d="M22.147 80.1072H95.147V38.1072H22.147V80.1072V80.1072Z" fill="white"/>
</mask>
<g mask="url(#mask0_0_759)">
<path fill-rule="evenodd" clip-rule="evenodd" d="M33.2026 57.7378C27.1077 57.7378 22.147 62.7549 22.147 68.9235C22.147 75.0883 27.1077 80.1072 33.2026 80.1072H81.2709C88.9236 80.1072 95.147 73.8081 95.147 66.0657C95.147 58.3232 88.9236 52.0241 81.2709 52.0241C79.8472 52.0241 78.4313 52.2467 77.067 52.6824L76.178 52.9684L75.8637 52.0778C72.9264 43.7212 65.0744 38.1072 56.3276 38.1072C45.634 38.1072 36.7589 46.2144 35.682 56.9643L35.5824 57.9605L34.6014 57.8376C34.0572 57.7685 33.6127 57.7378 33.2026 57.7378" fill="#D6E3F2"/>
</g>
</svg>
